# xmcd
#
# Track frame offsets:
#	150
#	16383
#	33545
#	52834
#	66109
#	84342
#	95998
#	114555
#	129802
#	146809
#	165168
#	183260
#	202112
#	219133
#	233549
#
# Disc length: 3316 seconds
#
# Revision: 0
# Processed by: cddbd v1.5.2PL0 Copyright (c) Steve Scherf et al.
# Submitted via: dBpowerAMP V4.0
#
DISCID=c10cf20f
DTITLE=Vince Gill - Souvenirs
DYEAR=1900
DGENRE=Country
TTITLE0=Never Alone
TTITLE1=Never knew Lonely
TTITLE2=When I call your Name
TTITLE3=Liza Jane
TTITLE4=Look at Us
TTITLE5=Take Your Memory With You
TTITLE6=Pocket Full of Gold
TTITLE7=The Heart Won't Lie
TTITLE8=Don't Let Our Love Start Slippin' Away
TTITLE9=I Still Believe In You
TTITLE10=No Future In The Past
TTITLE11=Tryin' To Get Over You
TTITLE12=One More Last Chance
TTITLE13=I Can't Tell you Why
TTITLE14=I Will Always Love You
EXTD=Souvenirs Vince Gill
EXTT0=
EXTT1=
EXTT2=
EXTT3=
EXTT4=
EXTT5=
EXTT6=
EXTT7=
EXTT8=
EXTT9=
EXTT10=
EXTT11=
EXTT12=
EXTT13=
EXTT14=
PLAYORDER=
